
<svg width="258" height="41" viewBox="0 0 258 41" fill="none" xmlns="http://www.w3.org/2000/svg">
<path d="M138.933 32.211C139.013 32.1075 139.101 31.9955 139.191 31.8808C139.954 30.918 141.082 29.6362 142.268 28.6734C142.857 28.1892 143.458 27.789 143.991 27.5343C144.258 27.4055 144.507 27.3132 144.729 27.2544C144.95 27.1956 145.143 27.1732 145.307 27.1732H145.426V23.0786H145.307C144.488 23.0786 143.714 23.2494 143.002 23.5069C141.754 23.9631 140.669 24.6767 139.69 25.466C138.267 26.6219 137.071 27.9513 136.194 29.026L123.872 15.0994C122.73 13.672 121.162 11.71 121.224 9.33389C121.224 6.40078 123.51 3.87629 127.042 3.80912H135.182V0H127.005C127.005 0 127.005 0 127.003 0C121.584 0 116.952 3.80632 116.952 9.15477C116.952 12.4237 118.035 14.2065 119.481 16.1685L120.323 17.2964L116.589 20.6857C111.831 24.965 111.049 31.7996 115.625 36.8542C120.564 42.2642 129.475 40.5402 133.388 37.2712L135.857 35.1301L139.71 39.5298H145.432L138.939 32.2138L138.933 32.211ZM130.674 34.2373C127.964 36.7338 122.004 37.7442 118.752 34.0582C115.741 30.7305 116.464 26.272 119.294 23.6552L122.846 20.445L133.022 32.0963L130.674 34.2373Z" fill="white"/>
<path d="M0 28.3599L6.60048 11.9731H9.28264L15.8831 28.3599H13.2492L11.979 24.9454H3.90415L2.63396 28.3599H0ZM11.2333 22.8324L7.93872 14.8083L4.64415 22.8324H11.2305H11.2333Z" fill="white"/>
<path d="M29.6455 28.3599H18.0691V11.9731H20.5499V26.0537H29.6455V28.3599Z" fill="white"/>
<path d="M43.68 28.3599H32.1036V11.9731H34.5845V26.0537H43.68V28.3599Z" fill="white"/>
<path d="M46.6201 23.5684C47.3856 25.1721 48.8543 26.3196 51.0204 26.3196C52.8662 26.3196 54.3037 25.4156 54.3037 23.9798C54.3037 22.5441 53.0335 22.0011 50.6802 21.2286C47.6465 20.2267 45.2564 19.1883 45.2819 16.2944C45.3046 13.3025 48.0576 11.7324 50.7171 11.7324C53.6686 11.7324 55.5512 13.3613 56.4471 15.1105L54.5305 16.4847C53.8472 15.2169 52.5543 14.0358 50.7199 14.0358C49.203 14.0358 47.7684 14.8335 47.7684 16.2804C47.7684 17.7274 49.0754 18.1136 51.3323 18.9001C54.3093 19.9384 56.7902 20.7836 56.7902 23.9546C56.7902 27.1256 53.8132 28.6006 51.0743 28.6006C47.9442 28.6006 45.6987 26.9605 44.78 24.8838L46.6258 23.5684H46.6201Z" fill="white"/>
<path d="M58.8656 20.1903C58.8656 15.2785 62.4068 11.7324 67.1105 11.7324C71.8142 11.7324 75.3696 15.2813 75.3696 20.1903C75.3696 25.0993 71.8511 28.6006 67.1105 28.6006C62.37 28.6006 58.8656 25.1385 58.8656 20.1903ZM67.1134 26.1993C70.5355 26.1993 72.7839 23.7727 72.7839 20.1651C72.7839 16.5575 70.5384 14.131 67.1134 14.131C63.6884 14.131 61.4542 16.6415 61.4542 20.1651C61.4542 23.6888 63.7366 26.1993 67.1134 26.1993Z" fill="white"/>
<path d="M78.4772 28.3601V11.9873H85.0408C88.3354 11.9873 90.4646 14.0752 90.4646 17.1146C90.4646 20.1541 88.3354 22.256 85.0408 22.256H80.9467V28.3629H78.4772V28.3601ZM80.9467 19.9386H84.9331C86.8752 19.9386 87.8846 18.6848 87.8846 17.1146C87.8846 15.5445 86.8724 14.2907 84.9331 14.2907H80.9467V19.9386Z" fill="white"/>
<path d="M93.1808 28.3601V11.9873H99.7444C103.039 11.9873 105.168 14.0752 105.168 17.1146C105.168 20.1541 103.039 22.256 99.7444 22.256H95.6503V28.3629H93.1808V28.3601ZM95.6531 19.9386H99.6395C101.582 19.9386 102.591 18.6848 102.591 17.1146C102.591 15.5445 101.579 14.2907 99.6395 14.2907H95.6531V19.9386Z" fill="white"/>
<path d="M152.832 28.3599L159.432 11.9731H162.114L168.715 28.3599H166.081L164.811 24.9454H156.742L155.471 28.3599H152.837H152.832ZM164.065 22.8324L160.771 14.8083L157.476 22.8324H164.062H164.065Z" fill="white"/>
<path d="M182.477 28.3599H170.901V11.9731H173.382V26.0537H182.477V28.3599Z" fill="white"/>
<path d="M196.512 28.3599H184.935V11.9731H187.416V26.0537H196.512V28.3599Z" fill="white"/>
<path d="M199.452 23.5684C200.217 25.1721 201.686 26.3196 203.852 26.3196C205.698 26.3196 207.135 25.4156 207.135 23.9798C207.135 22.5441 205.865 22.0011 203.512 21.2286C200.478 20.2267 198.088 19.1883 198.114 16.2944C198.136 13.3025 200.889 11.7324 203.549 11.7324C206.5 11.7324 208.383 13.3613 209.279 15.1105L207.362 16.4847C206.679 15.2169 205.386 14.0358 203.552 14.0358C202.035 14.0358 200.6 14.8335 200.6 16.2804C200.6 17.7274 201.907 18.1136 204.164 18.9001C207.141 19.9384 209.622 20.7836 209.622 23.9546C209.622 27.1256 206.645 28.6006 203.906 28.6006C200.776 28.6006 198.53 26.9605 197.612 24.8838L199.458 23.5684H199.452Z" fill="white"/>
<path d="M211.697 20.1903C211.697 15.2785 215.239 11.7324 219.942 11.7324C224.646 11.7324 228.201 15.2813 228.201 20.1903C228.201 25.0993 224.683 28.6006 219.942 28.6006C215.202 28.6006 211.697 25.1385 211.697 20.1903ZM219.945 26.1993C223.367 26.1993 225.616 23.7727 225.616 20.1651C225.616 16.5575 223.37 14.131 219.945 14.131C216.52 14.131 214.286 16.6415 214.286 20.1651C214.286 23.6888 216.568 26.1993 219.945 26.1993Z" fill="white"/>
<path d="M231.309 28.3601V11.9873H237.873C241.167 11.9873 243.296 14.0752 243.296 17.1146C243.296 20.1541 241.167 22.256 237.873 22.256H233.778V28.3629H231.309V28.3601ZM233.778 19.9386H237.765C239.707 19.9386 240.716 18.6848 240.716 17.1146C240.716 15.5445 239.704 14.2907 237.765 14.2907H233.778V19.9386Z" fill="white"/>
<path d="M246.013 28.3601V11.9873H252.576C255.871 11.9873 258 14.0752 258 17.1146C258 20.1541 255.871 22.256 252.576 22.256H248.482V28.3629H246.013V28.3601ZM248.485 19.9386H252.471C254.413 19.9386 255.423 18.6848 255.423 17.1146C255.423 15.5445 254.411 14.2907 252.471 14.2907H248.485V19.9386Z" fill="white"/>
</svg>
