<svg xmlns="http://www.w3.org/2000/svg" width="162" height="66" viewBox="0 0 162 66" fill="none">
  <g clip-path="url(#clip0_2249_3083)">
    <path d="M20.25 19.2662V24.6539H33.21C32.805 27.7519 31.725 29.907 30.24 31.5233C28.35 33.409 25.38 35.5641 20.115 35.5641C12.15 35.5641 5.805 29.0988 5.805 21.0172C5.805 12.9356 12.15 6.60497 20.25 6.60497C24.57 6.60497 27.675 8.35599 30.105 10.5111L33.885 6.73966C30.645 3.50701 26.325 1.08252 20.25 1.08252C9.315 1.08252 0 10.107 0 21.0172C0 31.9274 9.18 40.9519 20.25 40.9519C26.19 40.9519 30.645 39.0662 34.155 35.4294C37.8 31.7927 38.88 26.809 38.88 22.6335C38.88 21.4213 38.745 20.209 38.61 19.2662H20.25Z" fill="#002E53"/>
    <path d="M55.0789 14.8203C47.9239 14.8203 42.1189 20.2081 42.1189 27.7509C42.1189 35.1591 47.9239 40.6815 55.0789 40.6815C62.2339 40.6815 68.0389 35.2938 68.0389 27.7509C68.0389 20.2081 62.2339 14.8203 55.0789 14.8203ZM55.0789 35.4285C51.1639 35.4285 47.7889 32.1958 47.7889 27.6162C47.7889 23.0366 51.1639 19.804 55.0789 19.804C58.9939 19.804 62.3689 23.0366 62.3689 27.6162C62.3689 32.3305 58.9939 35.4285 55.0789 35.4285Z" fill="#002E53"/>
    <path d="M118.394 17.6489H118.259C117.044 16.1673 114.614 14.8203 111.509 14.8203C105.029 14.8203 99.4939 20.4775 99.4939 27.7509C99.4939 35.0244 105.164 40.6815 111.509 40.6815C114.614 40.6815 117.044 39.3346 118.259 37.7183H118.394V39.4693C118.394 44.453 115.694 47.0122 111.509 47.0122C107.999 47.0122 105.839 44.5877 105.029 42.4326L100.169 44.453C101.654 47.8203 105.299 51.9958 111.644 51.9958C118.259 51.9958 123.929 48.0897 123.929 38.5264V15.4938H118.529V17.6489H118.394ZM111.914 35.4285C107.999 35.4285 105.029 32.0611 105.029 27.6162C105.029 23.0366 107.999 19.804 111.914 19.804C115.829 19.804 118.799 23.1713 118.799 27.6162C118.799 32.1958 115.829 35.4285 111.914 35.4285Z" fill="#002E53"/>
    <path d="M83.9695 14.8203C76.8145 14.8203 71.0095 20.2081 71.0095 27.7509C71.0095 35.1591 76.8145 40.6815 83.9695 40.6815C91.1245 40.6815 96.9295 35.2938 96.9295 27.7509C96.7945 20.2081 90.9895 14.8203 83.9695 14.8203ZM83.9695 35.4285C80.0545 35.4285 76.6795 32.1958 76.6795 27.6162C76.6795 23.0366 80.0545 19.804 83.9695 19.804C87.8845 19.804 91.2595 23.0366 91.2595 27.6162C91.2595 32.3305 87.8845 35.4285 83.9695 35.4285Z" fill="#002E53"/>
    <path d="M128.25 1.62183H133.785V40.5484H128.25V1.62183Z" fill="#002E53"/>
    <path d="M150.93 35.4289C148.095 35.4289 146.07 34.082 144.72 31.5228L162 24.384L161.46 22.9024C160.38 20.0738 157.14 14.686 150.39 14.686C143.775 14.686 138.24 19.9391 138.24 27.6166C138.24 34.8901 143.64 40.5473 151.065 40.5473C157.005 40.5473 160.38 36.9105 161.73 34.8901L157.41 31.9269C155.79 34.082 153.9 35.4289 150.93 35.4289ZM150.525 19.6697C152.82 19.6697 154.71 20.882 155.385 22.4983L143.775 27.3473C143.775 21.8248 147.69 19.6697 150.525 19.6697Z" fill="#002E53"/>
    <path d="M14.0354 51.4399V56.5447H17.1776C17.9318 56.5447 18.6859 56.2956 19.1887 55.7977C19.6914 55.2996 20.0684 54.677 20.0684 53.93C20.0684 53.3075 19.8171 52.6849 19.3143 52.1869C18.8116 51.6888 18.1832 51.4399 17.4289 51.4399H14.0354ZM14.0354 64.0151H12.15V49.5723H17.3032C18.5602 49.5723 19.6914 49.9458 20.6969 50.8174C21.5768 51.6888 22.0795 52.6849 22.0795 53.93C22.0795 54.9261 21.7025 55.7977 21.0739 56.5447C20.4455 57.2917 19.5657 57.7898 18.4345 58.0387L22.708 63.8906V64.0151H20.4455L16.2978 58.1633H14.1611V64.0151H14.0354ZM28.4896 64.3886C26.9814 64.3886 25.7245 63.8906 24.7189 62.8946C23.7135 61.8985 23.2107 60.6534 23.2107 59.1594C23.2107 57.6652 23.7134 56.4201 24.5932 55.424C25.5989 54.4281 26.73 53.93 28.2382 53.93C29.7466 53.93 31.0035 54.4281 31.8832 55.2996C32.7632 56.2956 33.2659 57.5408 33.2659 59.2838V59.5329H25.0961C25.0961 60.5289 25.4732 61.276 26.1016 61.8985C26.73 62.5211 27.4841 62.77 28.4896 62.77C29.7466 62.77 30.7521 62.1474 31.3805 61.0269L33.1402 61.7739C32.6375 62.6455 32.0089 63.2681 31.2548 63.766C30.5007 64.1395 29.4952 64.3886 28.4896 64.3886ZM25.3475 57.9143H31.2548C31.2548 57.1673 30.8778 56.6692 30.375 56.1712C29.8723 55.6731 29.1182 55.5486 28.2382 55.5486C27.4841 55.5486 26.8557 55.7977 26.353 56.1712C25.8502 56.6692 25.5989 57.1673 25.3475 57.9143ZM39.9275 64.0151H38.0421L33.8943 54.1791H36.0311L39.0476 61.8985L42.1898 54.1791H44.2009L39.9275 64.0151ZM47.9716 50.8174C47.9716 51.1909 47.8459 51.4399 47.5945 51.6888C47.3432 51.9379 46.9661 52.0625 46.5889 52.0625C46.2119 52.0625 45.8348 51.9379 45.5835 51.6888C45.3321 51.4399 45.2064 51.0664 45.2064 50.8174C45.2064 50.5683 45.3321 50.1948 45.5835 49.9458C45.8348 49.6969 46.2119 49.5723 46.5889 49.5723C46.9661 49.5723 47.3432 49.6969 47.5945 49.9458C47.8459 50.1948 47.9716 50.4439 47.9716 50.8174ZM47.5945 54.1791V64.0151H45.7091V54.1791H47.5945ZM54.6332 64.3886C53.1248 64.3886 51.868 63.8906 50.8625 62.8946C49.8569 61.8985 49.3541 60.6534 49.3541 59.1594C49.3541 57.6652 49.8569 56.4201 50.7368 55.424C51.7423 54.4281 52.8734 53.93 54.3818 53.93C55.89 53.93 57.1469 54.4281 58.0268 55.2996C58.9066 56.2956 59.4093 57.5408 59.4093 59.2838V59.5329H51.2395C51.2395 60.5289 51.6166 61.276 52.245 61.8985C52.8735 62.5211 53.6276 62.77 54.6332 62.77C55.89 62.77 56.8955 62.1474 57.5239 61.0269L59.2837 61.7739C58.7809 62.6455 58.1525 63.2681 57.3982 63.766C56.6441 64.1395 55.7643 64.3886 54.6332 64.3886ZM51.6166 57.9143H57.5239C57.5239 57.1673 57.1469 56.6692 56.6441 56.1712C56.1414 55.6731 55.3873 55.5486 54.5075 55.5486C53.7532 55.5486 53.1248 55.7977 52.6221 56.1712C52.1193 56.6692 51.7423 57.1673 51.6166 57.9143ZM75.8746 54.1791L72.4811 64.0151H70.47L67.8305 56.4201L65.3168 64.0151H63.3057L59.9121 54.1791H61.9232L64.1855 61.6495L66.6993 54.1791H68.7104L71.2241 61.6495L73.4866 54.1791H75.8746ZM85.05 61.276C85.05 62.1474 84.673 62.8946 83.9189 63.5171C83.1646 64.1395 82.0335 64.3886 80.9023 64.3886C79.8968 64.3886 78.8912 64.1395 78.1371 63.6416C77.383 63.1435 76.7545 62.3965 76.5032 61.6495L78.2628 60.9024C78.5141 61.525 78.8912 61.8985 79.3939 62.272C79.8968 62.6455 80.3995 62.77 81.028 62.77C81.6564 62.77 82.1591 62.6455 82.5362 62.3965C82.9132 62.1474 83.1646 61.8985 83.1646 61.525C83.1646 60.9024 82.6619 60.4043 81.6564 60.1554L79.8968 59.7818C77.8857 59.2838 76.8802 58.4122 76.8802 57.0427C76.8802 56.1712 77.2573 55.4242 78.0114 54.9261C78.7655 54.4281 79.7711 54.0545 80.9023 54.0545C81.7821 54.0545 82.6619 54.3035 83.4161 54.677C84.1702 55.0505 84.673 55.6731 84.9243 56.2956L83.1646 57.0427C82.9132 56.6692 82.6619 56.2956 82.1591 56.0466C81.6564 55.7977 81.2793 55.6731 80.6509 55.6731C80.1482 55.6731 79.6454 55.7977 79.2682 56.0466C78.8912 56.2956 78.6398 56.5447 78.6398 56.9182C78.6398 57.5408 79.1426 57.9143 80.2739 58.1633L81.7821 58.5368C84.0445 58.7857 85.05 59.7818 85.05 61.276Z" fill="#002E53"/>
    <path d="M94.0112 62.2017C94.0957 62.1521 94.2006 62.1521 94.2851 62.2017L96.7486 63.6475C96.9526 63.7672 97.2014 63.5857 97.1487 63.3555L96.5241 60.6228C96.5017 60.5246 96.536 60.4221 96.6132 60.3571L98.7601 58.5482C98.9438 58.3934 98.8484 58.0942 98.6088 58.074L95.7847 57.8352C95.6867 57.8268 95.6008 57.7659 95.5609 57.6761L94.4001 55.0706C94.3043 54.8555 93.9974 54.8579 93.9049 55.0745L92.7959 57.6726C92.7568 57.7643 92.67 57.827 92.5703 57.8354L89.7491 58.074C89.5095 58.0942 89.414 58.3934 89.5978 58.5482L91.7424 60.3552C91.8208 60.4212 91.8548 60.5258 91.8304 60.6252L91.1612 63.3438C91.1042 63.5752 91.3544 63.761 91.5603 63.6402L94.0112 62.2017Z" fill="#002E53"/>
    <path d="M105.647 62.2017C105.732 62.1521 105.836 62.1521 105.921 62.2017L108.384 63.6475C108.588 63.7672 108.837 63.5857 108.784 63.3555L108.16 60.6228C108.137 60.5246 108.172 60.4221 108.249 60.3571L110.396 58.5482C110.58 58.3934 110.484 58.0942 110.244 58.074L107.421 57.8352C107.322 57.8268 107.237 57.7659 107.197 57.6761L106.036 55.0706C105.94 54.8555 105.633 54.8579 105.541 55.0745L104.432 57.6726C104.392 57.7643 104.306 57.827 104.206 57.8354L101.385 58.074C101.145 58.0942 101.05 58.3934 101.233 58.5482L103.378 60.3552C103.457 60.4212 103.491 60.5258 103.466 60.6252L102.797 63.3438C102.74 63.5752 102.99 63.761 103.196 63.6402L105.647 62.2017Z" fill="#002E53"/>
    <path d="M117.283 62.2017C117.367 62.1521 117.472 62.1521 117.557 62.2017L120.02 63.6475C120.224 63.7672 120.473 63.5857 120.42 63.3555L119.796 60.6228C119.773 60.5246 119.808 60.4221 119.885 60.3571L122.032 58.5482C122.216 58.3934 122.12 58.0942 121.88 58.074L119.056 57.8352C118.958 57.8268 118.873 57.7659 118.832 57.6761L117.672 55.0706C117.576 54.8555 117.269 54.8579 117.177 55.0745L116.068 57.6726C116.028 57.7643 115.942 57.827 115.842 57.8354L113.021 58.074C112.781 58.0942 112.686 58.3934 112.87 58.5482L115.014 60.3552C115.092 60.4212 115.127 60.5258 115.102 60.6252L114.433 63.3438C114.376 63.5752 114.626 63.761 114.832 63.6402L117.283 62.2017Z" fill="#002E53"/>
    <path d="M128.919 62.2017C129.003 62.1521 129.108 62.1521 129.193 62.2017L131.656 63.6475C131.86 63.7672 132.109 63.5857 132.056 63.3555L131.432 60.6228C131.409 60.5246 131.443 60.4221 131.521 60.3571L133.668 58.5482C133.851 58.3934 133.756 58.0942 133.516 58.074L130.692 57.8352C130.594 57.8268 130.508 57.7659 130.468 57.6761L129.308 55.0706C129.212 54.8555 128.905 54.8579 128.813 55.0745L127.703 57.6726C127.664 57.7643 127.577 57.827 127.478 57.8354L124.657 58.074C124.417 58.0942 124.321 58.3934 124.505 58.5482L126.65 60.3552C126.728 60.4212 126.762 60.5258 126.738 60.6252L126.069 63.3438C126.012 63.5752 126.262 63.761 126.468 63.6402L128.919 62.2017Z" fill="#002E53"/>
    <path d="M140.555 62.2017C140.639 62.1521 140.744 62.1521 140.828 62.2017L143.292 63.6475C143.496 63.7672 143.745 63.5857 143.693 63.3555L143.068 60.6228C143.045 60.5246 143.08 60.4221 143.157 60.3571L145.303 58.5482C145.487 58.3934 145.392 58.0942 145.152 58.074L142.328 57.8352C142.231 57.8268 142.144 57.7659 142.104 57.6761L140.944 55.0706C140.848 54.8555 140.54 54.8579 140.449 55.0745L139.339 57.6726C139.3 57.7643 139.213 57.827 139.113 57.8354L136.292 58.074C136.053 58.0942 135.957 58.3934 136.141 58.5482L138.286 60.3552C138.364 60.4212 138.398 60.5258 138.374 60.6252L137.704 63.3438C137.647 63.5752 137.897 63.761 138.104 63.6402L140.555 62.2017Z" fill="#002E53"/>
  </g>
  <defs>
    <clipPath id="clip0_2249_3083">
      <rect width="162" height="66" fill="white"/>
    </clipPath>
  </defs>
</svg>